<?xml version="1.0" encoding="iso-8859-1"?>
<!-- Generator: Adobe Illustrator 19.0.0, SVG Export Plug-In . SVG Version: 6.00 Build 0)  -->
<svg xmlns="http://www.w3.org/2000/svg" xmlns:xlink="http://www.w3.org/1999/xlink" version="1.1" id="Capa_1" x="0px" y="0px" viewBox="0 0 508 508" style="enable-background:new 0 0 508 508;" xml:space="preserve" width="512px" height="512px">
<g>
	<g>
		<path d="M0,0v295h138.3c14.3,40.1,48.7,70.8,91.2,79.5v18.9H213V508h16.4v-98.3h49.2V508H295V393.3h-16.4v-18.9    c42.5-8.7,76.9-39.3,91.2-79.5H508V0H0z M262.2,393.3L262.2,393.3h-16.4v-16.8c2.7,0.2,5.4,0.4,8.2,0.4c2.8,0,5.5-0.2,8.2-0.4    V393.3z M254,360.5c-58.7,0-106.5-47.8-106.5-106.5S195.3,147.5,254,147.5S360.5,195.3,360.5,254S312.7,360.5,254,360.5z     M491.6,278.6H374.4c1.6-7.9,2.5-16.2,2.5-24.6c0-22.2-6-43-16.4-61.1V41h-16.4v129.8c-9.4-10.2-20.4-18.8-32.8-25.3V41H295v97.3    c-10.4-3.7-21.3-6-32.8-6.8V41h-16.4v90.5c-11.4,0.8-22.4,3.1-32.8,6.8V41h-16.4v104.4c-12.3,6.5-23.4,15.2-32.8,25.3V41h-16.4    v152C137,211,131,231.8,131,254.1c0,8.4,0.9,16.6,2.5,24.6H16.4V16.4h475.2V278.6z" fill="#324157"/>
	</g>
</g>
<g>
	<g>
		<rect x="49.2" y="41" width="16.4" height="213" fill="#324157"/>
	</g>
</g>
<g>
	<g>
		<rect x="98.3" y="41" width="16.4" height="188.5" fill="#324157"/>
	</g>
</g>
<g>
	<g>
		<rect x="393.3" y="41" width="16.4" height="188.5" fill="#324157"/>
	</g>
</g>
<g>
	<g>
		<rect x="442.5" y="41" width="16.4" height="213" fill="#324157"/>
	</g>
</g>
<g>
	<g>
		<rect x="245.8" y="491.6" width="16.4" height="16.4" fill="#324157"/>
	</g>
</g>
<g>
	<g>
		<rect x="245.8" y="458.8" width="16.4" height="16.4" fill="#324157"/>
	</g>
</g>
<g>
	<g>
		<rect x="245.8" y="426.1" width="16.4" height="16.4" fill="#324157"/>
	</g>
</g>
<g>
</g>
<g>
</g>
<g>
</g>
<g>
</g>
<g>
</g>
<g>
</g>
<g>
</g>
<g>
</g>
<g>
</g>
<g>
</g>
<g>
</g>
<g>
</g>
<g>
</g>
<g>
</g>
<g>
</g>
</svg>
