
<svg width="610px" height="455px" viewBox="0 0 610 455" version="1.1" xmlns="http://www.w3.org/2000/svg" xmlns:xlink="http://www.w3.org/1999/xlink">
    <!-- Generator: Sketch 43.1 (39012) - http://www.bohemiancoding.com/sketch -->
    <desc>Created with Sketch.</desc>
    <defs>
        <polygon id="path-1" points="13.5925218 15.8243936 0.00851528384 15.8243936 0.00851528384 0.129231121 13.5925218 0.129231121"></polygon>
    </defs>
    <g id="Page-1" stroke="none" stroke-width="1" fill="none" fill-rule="evenodd">
        <polyline id="Rectangle" fill="#454545" points="0 0 105 0 105 455 0 455"></polyline>
        <polyline id="Rectangle" fill="#454545" points="505 0 610 0 610 455 505 455"></polyline>
        <polyline id="Rectangle" fill="#454545" points="0 0 610 0 610 80 0 80"></polyline>
        <polyline id="Rectangle" fill="#454545" points="0 375 610 375 610 455 0 455"></polyline>
        <path d="M464.305664,438.419434 C464.305664,438.773928 464.243897,439.102456 464.120361,439.405029 C463.996826,439.707602 463.824057,439.969888 463.602051,440.191895 C463.326333,440.467612 463.00049,440.674397 462.624512,440.812256 C462.248533,440.950115 461.774091,441.019043 461.201172,441.019043 L460.137695,441.019043 L460.137695,444 L459.074219,444 L459.074219,436.002441 L461.244141,436.002441 C461.723961,436.002441 462.130369,436.042724 462.463379,436.123291 C462.796388,436.203858 463.091796,436.330077 463.349609,436.501953 C463.653973,436.706056 463.889403,436.960285 464.055908,437.264648 C464.222413,437.569012 464.305664,437.953936 464.305664,438.419434 Z M463.199219,438.446289 C463.199219,438.170572 463.150879,437.930665 463.054199,437.726562 C462.957519,437.52246 462.810711,437.355958 462.61377,437.227051 C462.441894,437.116048 462.245851,437.036377 462.025635,436.988037 C461.805419,436.939697 461.52702,436.915527 461.19043,436.915527 L460.137695,436.915527 L460.137695,440.111328 L461.034668,440.111328 C461.464358,440.111328 461.813475,440.072836 462.082031,439.99585 C462.350587,439.918864 462.56901,439.796225 462.737305,439.62793 C462.9056,439.456054 463.024658,439.275229 463.094482,439.085449 C463.164307,438.89567 463.199219,438.682618 463.199219,438.446289 Z M470.47168,441.00293 C470.47168,441.980474 470.221031,442.752113 469.719727,443.317871 C469.218422,443.883629 468.547042,444.166504 467.705566,444.166504 C466.856929,444.166504 466.182864,443.883629 465.68335,443.317871 C465.183835,442.752113 464.934082,441.980474 464.934082,441.00293 C464.934082,440.025386 465.183835,439.252851 465.68335,438.685303 C466.182864,438.117754 466.856929,437.833984 467.705566,437.833984 C468.547042,437.833984 469.218422,438.117754 469.719727,438.685303 C470.221031,439.252851 470.47168,440.025386 470.47168,441.00293 Z M469.429688,441.00293 C469.429688,440.225908 469.277508,439.648521 468.973145,439.270752 C468.668781,438.892983 468.246259,438.704102 467.705566,438.704102 C467.157712,438.704102 466.732505,438.892983 466.429932,439.270752 C466.127359,439.648521 465.976074,440.225908 465.976074,441.00293 C465.976074,441.754887 466.128254,442.325112 466.432617,442.713623 C466.736981,443.102134 467.161293,443.296387 467.705566,443.296387 C468.242678,443.296387 468.664305,443.103924 468.970459,442.718994 C469.276613,442.334064 469.429688,441.762048 469.429688,441.00293 Z M479.581055,438.000488 L478.018066,444 L477.083496,444 L475.541992,439.375488 L474.01123,444 L473.082031,444 L471.50293,438.000488 L472.555664,438.000488 L473.656738,442.646484 L475.155273,438.000488 L475.987793,438.000488 L477.523926,442.646484 L478.565918,438.000488 L479.581055,438.000488 Z M486.058594,441.10498 L481.638184,441.10498 C481.638184,441.473797 481.693684,441.795165 481.804688,442.069092 C481.915691,442.343019 482.06787,442.567707 482.26123,442.743164 C482.447429,442.91504 482.668537,443.043945 482.924561,443.129883 C483.180584,443.215821 483.462564,443.258789 483.770508,443.258789 C484.178713,443.258789 484.589598,443.177328 485.003174,443.014404 C485.41675,442.85148 485.711262,442.691244 485.886719,442.533691 L485.94043,442.533691 L485.94043,443.634766 C485.600259,443.777996 485.252931,443.897949 484.898438,443.994629 C484.543944,444.091309 484.171551,444.139648 483.78125,444.139648 C482.785802,444.139648 482.008792,443.870201 481.450195,443.331299 C480.891599,442.792396 480.612305,442.027023 480.612305,441.035156 C480.612305,440.054032 480.879962,439.275231 481.415283,438.69873 C481.950605,438.12223 482.655106,437.833984 483.528809,437.833984 C484.338057,437.833984 484.961993,438.07031 485.400635,438.542969 C485.839276,439.015627 486.058594,439.687007 486.058594,440.557129 L486.058594,441.10498 Z M485.075684,440.331543 C485.072103,439.801592 484.938722,439.391603 484.675537,439.101562 C484.412352,438.811522 484.01221,438.666504 483.475098,438.666504 C482.934405,438.666504 482.503826,438.825845 482.18335,439.144531 C481.862873,439.463218 481.681153,439.858884 481.638184,440.331543 L485.075684,440.331543 Z M491.333008,439.101562 L491.279297,439.101562 C491.128905,439.065755 490.982992,439.039795 490.841553,439.023682 C490.700113,439.007568 490.532716,438.999512 490.339355,438.999512 C490.02783,438.999512 489.727052,439.06844 489.437012,439.206299 C489.146971,439.344158 488.867677,439.522297 488.599121,439.740723 L488.599121,444 L487.589355,444 L487.589355,438.000488 L488.599121,438.000488 L488.599121,438.886719 C489.000165,438.564452 489.353758,438.336182 489.659912,438.201904 C489.966066,438.067626 490.278481,438.000488 490.597168,438.000488 C490.772625,438.000488 490.899739,438.004964 490.978516,438.013916 C491.057292,438.022868 491.175455,438.039876 491.333008,438.064941 L491.333008,439.101562 Z M497.305664,441.10498 L492.885254,441.10498 C492.885254,441.473797 492.940755,441.795165 493.051758,442.069092 C493.162761,442.343019 493.31494,442.567707 493.508301,442.743164 C493.6945,442.91504 493.915607,443.043945 494.171631,443.129883 C494.427654,443.215821 494.709634,443.258789 495.017578,443.258789 C495.425783,443.258789 495.836668,443.177328 496.250244,443.014404 C496.66382,442.85148 496.958332,442.691244 497.133789,442.533691 L497.1875,442.533691 L497.1875,443.634766 C496.847329,443.777996 496.500002,443.897949 496.145508,443.994629 C495.791014,444.091309 495.418622,444.139648 495.02832,444.139648 C494.032873,444.139648 493.255862,443.870201 492.697266,443.331299 C492.138669,442.792396 491.859375,442.027023 491.859375,441.035156 C491.859375,440.054032 492.127032,439.275231 492.662354,438.69873 C493.197675,438.12223 493.902177,437.833984 494.775879,437.833984 C495.585128,437.833984 496.209064,438.07031 496.647705,438.542969 C497.086347,439.015627 497.305664,439.687007 497.305664,440.557129 L497.305664,441.10498 Z M496.322754,440.331543 C496.319173,439.801592 496.185792,439.391603 495.922607,439.101562 C495.659423,438.811522 495.25928,438.666504 494.722168,438.666504 C494.181475,438.666504 493.750897,438.825845 493.43042,439.144531 C493.109943,439.463218 492.928223,439.858884 492.885254,440.331543 L496.322754,440.331543 Z M503.702637,444 L502.692871,444 L502.692871,443.371582 C502.402831,443.622234 502.100262,443.817382 501.785156,443.957031 C501.470051,444.09668 501.128094,444.166504 500.759277,444.166504 C500.043128,444.166504 499.474693,443.890791 499.053955,443.339355 C498.633217,442.78792 498.422852,442.023442 498.422852,441.045898 C498.422852,440.537432 498.495361,440.084475 498.640381,439.687012 C498.785401,439.289549 498.981444,438.951173 499.228516,438.671875 C499.472006,438.399738 499.755776,438.192058 500.079834,438.048828 C500.403892,437.905598 500.739582,437.833984 501.086914,437.833984 C501.40202,437.833984 501.681314,437.867106 501.924805,437.93335 C502.168295,437.999593 502.424315,438.102538 502.692871,438.242188 L502.692871,435.642578 L503.702637,435.642578 L503.702637,444 Z M502.692871,442.522949 L502.692871,439.080078 C502.420734,438.958333 502.177247,438.874186 501.962402,438.827637 C501.747558,438.781087 501.513022,438.757812 501.258789,438.757812 C500.693031,438.757812 500.252606,438.954751 499.9375,439.348633 C499.622394,439.742515 499.464844,440.301103 499.464844,441.024414 C499.464844,441.736983 499.586587,442.278563 499.830078,442.64917 C500.073569,443.019777 500.463865,443.205078 501.000977,443.205078 C501.287436,443.205078 501.577472,443.141521 501.871094,443.014404 C502.164715,442.887288 502.438638,442.723471 502.692871,442.522949 Z M514.836914,440.95459 C514.836914,441.455894 514.766195,441.907062 514.624756,442.308105 C514.483316,442.709149 514.292644,443.045734 514.052734,443.317871 C513.798501,443.60075 513.519207,443.812906 513.214844,443.954346 C512.91048,444.095785 512.575685,444.166504 512.210449,444.166504 C511.870278,444.166504 511.573081,444.126221 511.318848,444.045654 C511.064615,443.965087 510.813966,443.856772 510.566895,443.720703 L510.502441,444 L509.557129,444 L509.557129,435.642578 L510.566895,435.642578 L510.566895,438.628906 C510.849774,438.396158 511.150552,438.205486 511.469238,438.056885 C511.787925,437.908284 512.145994,437.833984 512.543457,437.833984 C513.252445,437.833984 513.811928,438.106117 514.221924,438.650391 C514.631919,439.194664 514.836914,439.962723 514.836914,440.95459 Z M513.794922,440.981445 C513.794922,440.265296 513.676759,439.721926 513.44043,439.351318 C513.2041,438.980711 512.822757,438.79541 512.296387,438.79541 C512.002765,438.79541 511.705568,438.858967 511.404785,438.986084 C511.104002,439.113201 510.824708,439.277017 510.566895,439.477539 L510.566895,442.915039 C510.853354,443.043946 511.099527,443.133463 511.30542,443.183594 C511.511313,443.233724 511.744953,443.258789 512.006348,443.258789 C512.564944,443.258789 513.002684,443.075279 513.31958,442.708252 C513.636476,442.341225 513.794922,441.765629 513.794922,440.981445 Z M521.572266,438.000488 L518.070312,446.212891 L516.990723,446.212891 L518.10791,443.709961 L515.717773,438.000488 L516.813477,438.000488 L518.655762,442.447754 L520.51416,438.000488 L521.572266,438.000488 Z" id="Powered-by" fill="#FFFFFF"></path>
        <g id="logo1_white" transform="translate(524.000000, 430.000000)">
            <path d="M18.8341048,11.0772182 C18.8341048,11.0772182 19.8978057,12.3390046 21.4488646,12.3390046 C22.4240066,12.3390046 23.2365066,11.7450549 23.2365066,10.7802433 C23.2365066,8.58288635 18.1990066,8.92436461 18.1990066,5.65778413 C18.1990066,4.08404577 19.5728057,2.85178566 21.5375655,2.85178566 C22.6454039,2.85178566 24.506845,3.35644317 24.506845,4.78183677 L24.506845,5.64294966 L23.1478057,5.64294966 L23.1478057,5.15312662 C23.1478057,4.6036804 22.3648253,4.20272159 21.5375655,4.20272159 C20.4148253,4.20272159 19.705786,4.8263402 19.705786,5.6132807 C19.705786,7.73646529 24.7285262,7.2613341 24.7285262,10.7059283 C24.7285262,12.3094783 23.4875655,13.6903684 21.419345,13.6903684 C19.2035262,13.6903684 17.9625655,12.1314645 17.9625655,12.1314645 L18.8341048,11.0772182" id="Fill-1" fill="#F2F2F1"></path>
            <path d="M25.4074782,7.52863997 C25.333679,7.29100305 25.1859389,7.23166514 24.9494978,7.23166514 L24.7427183,7.23166514 L24.7427183,5.99940503 L25.6437773,5.99940503 C26.308679,5.99940503 26.559738,6.16258429 26.7518996,6.80118002 L28.0814192,11.270209 C28.1994978,11.6561907 28.2585371,12.0718413 28.2585371,12.0718413 L28.2880568,12.0718413 C28.2880568,12.0718413 28.3767576,11.6561907 28.4949782,11.270209 L30.1050764,6.02907399 L31.4198362,6.02907399 L33.0448362,11.270209 C33.1630568,11.6561907 33.2369978,12.0718413 33.2369978,12.0718413 L33.2665175,12.0718413 C33.2665175,12.0718413 33.3255568,11.6561907 33.4437773,11.270209 L34.758679,6.80118002 C34.9506987,6.16258429 35.2165175,5.99940503 35.8812773,5.99940503 L36.7677183,5.99940503 L36.7677183,7.23166514 L36.5607969,7.23166514 C36.3246397,7.23166514 36.1767576,7.29100305 36.1029585,7.52863997 L34.1381987,13.5120694 L32.5279585,13.5120694 L30.9767576,8.68658505 C30.858679,8.30060336 30.7699782,7.87011823 30.7699782,7.87011823 L30.7404585,7.87011823 C30.7404585,7.87011823 30.6517576,8.30060336 30.533679,8.68658505 L28.997238,13.5120694 L27.3723799,13.5120694 L25.4074782,7.52863997" id="Fill-2" fill="#F2F2F1"></path>
            <path d="M37.5353712,4.52936537 L38.8206114,4.52936537 L38.8206114,3.02979939 L37.5353712,3.02979939 L37.5353712,4.52936537 Z M37.5057096,7.55830892 C37.5057096,7.33564912 37.3874891,7.23166514 37.1807096,7.23166514 L36.5748472,7.23166514 L36.5748472,5.99940503 L37.9783079,5.99940503 C38.6432096,5.99940503 38.9237882,6.28140275 38.9237882,6.94966743 L38.9237882,11.9531655 C38.9237882,12.1758253 39.0418668,12.2798093 39.2487882,12.2798093 L39.8546507,12.2798093 L39.8546507,13.5120694 L38.451048,13.5120694 C37.7864301,13.5120694 37.5057096,13.2299291 37.5057096,12.561807 L37.5057096,7.55830892 L37.5057096,7.55830892 Z" id="Fill-3" fill="#F2F2F1"></path>
            <path d="M40.7551419,7.15749275 L39.8247052,7.15749275 L39.8247052,5.99940503 L40.7551419,5.99940503 L40.7551419,5.74693364 C40.7551419,3.26743631 42.6314847,2.955627 43.5766812,2.955627 C43.9018231,2.955627 44.1235044,3.00013043 44.1235044,3.00013043 L44.1235044,4.23253318 C44.1235044,4.23253318 43.9759061,4.20272159 43.754083,4.20272159 C43.1927838,4.20272159 42.1882642,4.38087796 42.1882642,5.77660259 L42.1882642,5.99940503 L43.9608624,5.99940503 L43.9608624,7.15749275 L42.1882642,7.15749275 L42.1882642,13.5120694 L40.7551419,13.5120694 L40.7551419,7.15749275" id="Fill-4" fill="#F2F2F1"></path>
            <path d="M44.8766812,7.15749275 L43.9016812,7.15749275 L43.9016812,5.99940503 L44.9062009,5.99940503 L44.9062009,3.93555835 L46.3096616,3.93555835 L46.3096616,5.99940503 L48.0970197,5.99940503 L48.0970197,7.15749275 L46.3096616,7.15749275 L46.3096616,10.6019443 C46.3096616,12.1016529 47.3438428,12.2945011 47.8902402,12.2945011 C48.0970197,12.2945011 48.2298581,12.2649748 48.2298581,12.2649748 L48.2298581,13.541881 C48.2298581,13.541881 48.0379803,13.5714073 47.7277402,13.5714073 C46.7822598,13.5714073 44.8766812,13.2744325 44.8766812,10.7652662 L44.8766812,7.15749275" id="Fill-5" fill="#F2F2F1"></path>
            <path d="M51.3465939,12.2351632 L52.705917,12.2351632 C55.0250546,12.2351632 56.5467358,10.8395812 56.5467358,8.25609992 C56.5467358,5.68759573 55.0102948,4.30670557 52.705917,4.30670557 L51.0217358,4.30670557 L51.0217358,11.9085195 C51.0217358,12.1164874 51.1398144,12.2351632 51.3465939,12.2351632 Z M49.5443341,4.30670557 L48.5842358,4.30670557 L48.5842358,3.02979939 L52.8090939,3.02979939 C55.9852948,3.02979939 58.0830349,4.94515866 58.0830349,8.25609992 C58.0830349,11.5818757 55.9852948,13.5120694 52.8090939,13.5120694 L50.4898144,13.5120694 C49.8250546,13.5120694 49.5443341,13.2299291 49.5443341,12.561807 L49.5443341,4.30670557 L49.5443341,4.30670557 Z" id="Fill-6" fill="#F2F2F1"></path>
            <path d="M59.3083843,4.52936537 L60.5937664,4.52936537 L60.5937664,3.02979939 L59.3083843,3.02979939 L59.3083843,4.52936537 Z M59.2788646,7.55830892 C59.2788646,7.33564912 59.1605022,7.23166514 58.9538646,7.23166514 L58.3481441,7.23166514 L58.3481441,5.99940503 L59.7514629,5.99940503 C60.4163646,5.99940503 60.6969432,6.28140275 60.6969432,6.94966743 L60.6969432,11.9531655 C60.6969432,12.1758253 60.8153057,12.2798093 61.0219432,12.2798093 L61.6276638,12.2798093 L61.6276638,13.5120694 L60.224345,13.5120694 C59.5595852,13.5120694 59.2788646,13.2299291 59.2788646,12.561807 L59.2788646,7.55830892 L59.2788646,7.55830892 Z" id="Fill-7" fill="#F2F2F1"></path>
            <path d="M62.4990611,4.58884592 C62.4990611,4.36604348 62.3808406,4.26220214 62.1740611,4.26220214 L61.5684825,4.26220214 L61.5684825,3.02979939 L62.9864192,3.02979939 C63.651321,3.02979939 63.9318996,3.31193974 63.9318996,3.98006178 L63.9318996,11.9531655 C63.9318996,12.1758253 64.050262,12.2798093 64.2568996,12.2798093 L64.862762,12.2798093 L64.862762,13.5120694 L63.4445415,13.5120694 C62.7796397,13.5120694 62.4990611,13.2299291 62.4990611,12.561807 L62.4990611,4.58884592" id="Fill-8" fill="#F2F2F1"></path>
            <g id="Group-13" transform="translate(0.000000, 0.427918)">
                <mask id="mask-2" fill="white">
                    <use xlink:href="#path-1"></use>
                </mask>
                <g id="Clip-10"></g>
                <path d="M4.23578603,2.48491762 C4.9625655,2.10407094 5.79379913,2.03089703 6.5756441,2.27823341 C7.35748908,2.52571243 7.99670306,3.06431808 8.37549127,3.79491609 C8.46759825,3.97278719 8.39905022,4.19173837 8.22207424,4.28459649 C8.16885371,4.3122685 8.11180131,4.32553394 8.05560044,4.32553394 C7.92531659,4.32553394 7.79943231,4.25449962 7.735,4.13026087 C7.44548035,3.57168574 6.95670306,3.15960107 6.35878821,2.97046148 C5.76087336,2.78117925 5.12549127,2.83752174 4.56958515,3.12850572 C4.39275109,3.22093593 4.1746179,3.15218383 4.08251092,2.97445538 C3.99040393,2.79672693 4.05909389,2.57749047 4.23578603,2.48491762 Z M1.61662664,5.13543936 C1.61662664,7.38885355 3.44060044,9.22176735 5.68253275,9.22176735 C7.92460699,9.22176735 9.74858079,7.38885355 9.74858079,5.13543936 C9.74858079,2.88216781 7.92460699,1.04896873 5.68253275,1.04896873 C3.44060044,1.04896873 1.61662664,2.88216781 1.61662664,5.13543936 L1.61662664,5.13543936 Z" id="Fill-9" fill="#F2F2F1" mask="url(#mask-2)"></path>
                <path d="M3.66710699,0.129231121 C2.37519651,0.471279939 1.14800218,0.973655225 0.00808951965,1.61410526 C0.00326419214,1.77600076 0,1.93846682 0,2.10150343 C0,3.17700305 0.107576419,4.22739817 0.310665939,5.24284668 C0.310098253,5.2069016 0.308111354,5.17152708 0.308111354,5.13543936 C0.308111354,2.8730389 1.69965066,0.932289855 3.66710699,0.129231121" id="Fill-11" fill="#F2F2F1" mask="url(#mask-2)"></path>
                <path d="M11.6869432,12.7449558 L11.203559,12.2544195 L11.201714,12.2524226 L8.63378821,9.64668955 C7.78594978,10.208688 6.77177948,10.5373288 5.68253275,10.5373288 C3.76744541,10.5373288 2.08411572,9.52430511 1.13210699,8.004627 C2.45311135,11.3107185 4.84874454,14.0669359 7.88643013,15.8329519 C8.96815502,15.2041983 9.96713974,14.4486384 10.8662118,13.588524 L13.5925218,14.748894 L11.680131,12.7520877 C11.6822598,12.7498055 11.6846725,12.7473806 11.6869432,12.7449558" id="Fill-12" fill="#F2F2F1" mask="url(#mask-2)"></path>
            </g>
            <path d="M11.057238,5.56335698 C11.057238,6.87164378 10.5917358,8.07238063 9.81911572,9.00795118 L12.6995524,11.9309138 C14.6305349,9.30036156 15.7730022,6.04932876 15.7730022,2.52942105 C15.7730022,2.44283905 15.7711572,2.35668497 15.7698799,2.27053089 C13.4071725,0.851698703 10.6443886,0.0356598017 7.69228166,0.0356598017 C7.01716157,0.0356598017 6.35197598,0.0791647597 5.69927948,0.162038139 C8.65507642,0.171167048 11.057238,2.59047063 11.057238,5.56335698" id="Fill-14" fill="#F2F2F1"></path>
        </g>
    </g>
</svg>